<svg width="55" height="61" viewBox="0 0 55 61" fill="none" xmlns="http://www.w3.org/2000/svg">
<rect x="0.5" y="0.5" width="54" height="60" fill="white" stroke="black"/>
<path d="M10 19H45" stroke="black"/>
<path d="M15 19C26.2277 45.5447 31.8211 43.0924 41 19" stroke="black"/>
<path d="M26.2 16.2C26.2521 17.348 26.6763 18.3414 27.1555 19.3778C27.3449 19.7874 27.7866 20.2224 27.8 20.6889C27.8188 21.3477 27.7054 21.9926 27.9555 22.6C28.1503 23.073 27.4274 22.059 27.4 22.0445C27.0045 21.8351 26.5892 21.946 26.2 21.6C25.4495 20.933 25.3407 20.6661 25.4 19.6C25.4457 18.7763 25.6 20.1316 25.6 20.3556C25.6 21.3054 25.7108 20.9042 25.3 20.4111C24.9224 19.9581 25.1551 18.6929 24.9888 18.1111C24.806 17.4712 24.5927 18.6755 24.5888 18.6889C24.4855 19.0506 24.1153 19.6 23.7 19.6C21.8666 19.6 20.0333 19.6 18.2 19.6" stroke="white" stroke-width="3" stroke-linecap="square"/>
<path d="M27.8 19.4C29.6 19.4 31.4 19.4 33.2 19.4C33.8965 19.4 35.087 19.6406 35.7 19.3C36.0251 19.1195 37.4 18.239 37.4 19" stroke="white" stroke-width="3" stroke-linecap="square"/>
</svg>
