<svg width="275" height="61" viewBox="0 0 275 61" fill="none" xmlns="http://www.w3.org/2000/svg">
<path d="M63 30.5C63 46.7477 49.1666 60 32 60C14.8334 60 1 46.7477 1 30.5C1 14.2523 14.8334 1 32 1C49.1666 1 63 14.2523 63 30.5Z" fill="white" stroke="#181818" stroke-width="2"/>
<path d="M10 15C49.6 15 26.5 35.6667 10 46M54 41.5C18.8 45.1 39.3333 25.3333 54 15" stroke="black"/>
<path d="M86.572 44.128C86.284 44.344 85.876 44.584 85.348 44.848C84.844 45.088 84.244 45.316 83.548 45.532C82.852 45.748 82.072 45.928 81.208 46.072C80.368 46.216 79.468 46.288 78.508 46.288C76.468 46.288 74.632 45.94 73 45.244C71.392 44.524 70.024 43.564 68.896 42.364C67.768 41.164 66.904 39.772 66.304 38.188C65.704 36.604 65.404 34.924 65.404 33.148C65.404 31.18 65.752 29.368 66.448 27.712C67.168 26.056 68.14 24.628 69.364 23.428C70.588 22.228 72.016 21.292 73.648 20.62C75.304 19.948 77.056 19.612 78.904 19.612C79.6 19.612 80.308 19.66 81.028 19.756C81.748 19.852 82.42 19.984 83.044 20.152C83.692 20.32 84.256 20.524 84.736 20.764C85.24 20.98 85.624 21.208 85.888 21.448C85.696 21.736 85.54 21.976 85.42 22.168C85.324 22.36 85.216 22.564 85.096 22.78C84.976 22.972 84.844 23.2 84.7 23.464C84.556 23.728 84.364 24.076 84.124 24.508C83.812 24.292 83.44 24.112 83.008 23.968C82.6 23.824 82.168 23.704 81.712 23.608C81.256 23.512 80.788 23.44 80.308 23.392C79.852 23.344 79.432 23.32 79.048 23.32C77.656 23.32 76.36 23.584 75.16 24.112C73.984 24.616 72.964 25.312 72.1 26.2C71.236 27.064 70.552 28.072 70.048 29.224C69.568 30.376 69.328 31.576 69.328 32.824C69.328 34.048 69.556 35.224 70.012 36.352C70.492 37.48 71.14 38.488 71.956 39.376C72.796 40.264 73.792 40.972 74.944 41.5C76.12 42.028 77.404 42.292 78.796 42.292C79.54 42.292 80.26 42.22 80.956 42.076C81.652 41.932 82.276 41.764 82.828 41.572C83.404 41.38 83.872 41.188 84.232 40.996C84.616 40.804 84.844 40.66 84.916 40.564L86.572 44.128ZM87.6863 38.62C87.6863 37.516 87.8903 36.484 88.2983 35.524C88.7303 34.54 89.3063 33.688 90.0263 32.968C90.7463 32.224 91.5743 31.636 92.5103 31.204C93.4703 30.772 94.4903 30.556 95.5703 30.556C96.2903 30.556 96.9503 30.652 97.5503 30.844C98.1503 31.012 98.6663 31.228 99.0983 31.492C99.5303 31.756 99.8783 32.032 100.142 32.32C100.406 32.608 100.586 32.86 100.682 33.076L100.826 30.952H103.778V46H100.682V44.092C100.562 44.284 100.37 44.512 100.106 44.776C99.8423 45.04 99.4943 45.292 99.0623 45.532C98.6543 45.748 98.1623 45.94 97.5863 46.108C97.0103 46.276 96.3503 46.36 95.6063 46.36C94.4543 46.36 93.3863 46.156 92.4023 45.748C91.4423 45.316 90.6143 44.752 89.9183 44.056C89.2223 43.336 88.6703 42.508 88.2623 41.572C87.8783 40.636 87.6863 39.652 87.6863 38.62ZM90.7823 38.44C90.7823 39.136 90.9023 39.784 91.1423 40.384C91.4063 40.984 91.7543 41.5 92.1863 41.932C92.6183 42.364 93.1343 42.712 93.7343 42.976C94.3343 43.216 94.9943 43.336 95.7143 43.336C96.4343 43.336 97.0943 43.216 97.6943 42.976C98.3183 42.712 98.8463 42.364 99.2783 41.932C99.7343 41.476 100.082 40.96 100.322 40.384C100.562 39.784 100.682 39.136 100.682 38.44C100.682 37.744 100.562 37.108 100.322 36.532C100.082 35.932 99.7343 35.416 99.2783 34.984C98.8463 34.552 98.3183 34.216 97.6943 33.976C97.0943 33.712 96.4343 33.58 95.7143 33.58C94.9943 33.58 94.3343 33.712 93.7343 33.976C93.1343 34.216 92.6183 34.552 92.1863 34.984C91.7543 35.416 91.4063 35.932 91.1423 36.532C90.9023 37.108 90.7823 37.744 90.7823 38.44ZM108.101 30.952H110.801C110.849 31.696 110.885 32.38 110.909 33.004C110.957 33.604 111.005 34.204 111.053 34.804C111.605 33.508 112.385 32.476 113.393 31.708C114.425 30.94 115.685 30.556 117.173 30.556C118.685 30.556 119.897 30.976 120.809 31.816C121.721 32.656 122.201 33.736 122.249 35.056V46H119.153V36.46C119.105 35.692 118.841 35.044 118.361 34.516C117.881 33.964 117.125 33.664 116.093 33.616C115.373 33.616 114.713 33.748 114.113 34.012C113.513 34.252 112.997 34.588 112.565 35.02C112.133 35.452 111.785 35.968 111.521 36.568C111.281 37.168 111.161 37.828 111.161 38.548V46H108.101V30.952ZM125.41 38.476C125.41 37.3 125.602 36.232 125.986 35.272C126.394 34.288 126.946 33.448 127.642 32.752C128.338 32.056 129.154 31.516 130.09 31.132C131.05 30.748 132.082 30.556 133.186 30.556C133.93 30.556 134.59 30.652 135.166 30.844C135.766 31.012 136.27 31.228 136.678 31.492C137.11 31.732 137.47 32.008 137.758 32.32C138.046 32.632 138.262 32.908 138.406 33.148V18.028H141.502V46H138.406V44.884C138.406 44.74 138.418 44.584 138.442 44.416C138.466 44.224 138.478 44.068 138.478 43.948C138.238 44.236 137.95 44.524 137.614 44.812C137.302 45.076 136.93 45.328 136.498 45.568C136.066 45.808 135.562 46 134.986 46.144C134.434 46.288 133.798 46.36 133.078 46.36C131.878 46.36 130.798 46.156 129.838 45.748C128.902 45.316 128.098 44.752 127.426 44.056C126.778 43.336 126.274 42.496 125.914 41.536C125.578 40.576 125.41 39.556 125.41 38.476ZM128.506 38.44C128.506 39.136 128.626 39.784 128.866 40.384C129.13 40.984 129.478 41.5 129.91 41.932C130.342 42.364 130.858 42.712 131.458 42.976C132.058 43.216 132.718 43.336 133.438 43.336C134.158 43.336 134.818 43.216 135.418 42.976C136.042 42.712 136.57 42.364 137.002 41.932C137.458 41.476 137.806 40.96 138.046 40.384C138.286 39.784 138.406 39.136 138.406 38.44C138.406 37.744 138.286 37.108 138.046 36.532C137.806 35.932 137.458 35.416 137.002 34.984C136.57 34.552 136.042 34.216 135.418 33.976C134.818 33.712 134.158 33.58 133.438 33.58C132.718 33.58 132.058 33.712 131.458 33.976C130.858 34.216 130.342 34.552 129.91 34.984C129.478 35.416 129.13 35.932 128.866 36.532C128.626 37.108 128.506 37.744 128.506 38.44ZM148.92 46H145.86V18.028H148.92V46ZM166.021 44.236C165.301 44.884 164.425 45.4 163.393 45.784C162.361 46.168 161.305 46.36 160.225 46.36C159.121 46.36 158.077 46.156 157.093 45.748C156.133 45.316 155.293 44.752 154.573 44.056C153.853 43.336 153.277 42.496 152.845 41.536C152.437 40.576 152.233 39.556 152.233 38.476C152.233 37.396 152.437 36.376 152.845 35.416C153.277 34.456 153.853 33.616 154.573 32.896C155.293 32.176 156.121 31.612 157.057 31.204C158.017 30.772 159.037 30.556 160.117 30.556C161.821 30.556 163.297 31.072 164.545 32.104C165.817 33.112 166.729 34.444 167.281 36.1C166.537 36.364 165.685 36.688 164.725 37.072C163.765 37.456 162.769 37.864 161.737 38.296C160.705 38.704 159.673 39.112 158.641 39.52C157.609 39.928 156.649 40.3 155.761 40.636C156.169 41.452 156.757 42.112 157.525 42.616C158.317 43.096 159.193 43.336 160.153 43.336C160.801 43.336 161.449 43.216 162.097 42.976C162.769 42.736 163.309 42.412 163.717 42.004L166.021 44.236ZM163.429 35.38C163.141 34.78 162.685 34.336 162.061 34.048C161.437 33.736 160.801 33.58 160.153 33.58C159.457 33.58 158.809 33.712 158.209 33.976C157.633 34.24 157.129 34.6 156.697 35.056C156.265 35.488 155.917 35.992 155.653 36.568C155.413 37.144 155.293 37.732 155.293 38.332C155.293 38.452 155.293 38.536 155.293 38.584C155.317 38.632 155.329 38.668 155.329 38.692C155.953 38.452 156.625 38.188 157.345 37.9C158.089 37.588 158.821 37.288 159.541 37C160.261 36.688 160.957 36.4 161.629 36.136C162.301 35.848 162.901 35.596 163.429 35.38ZM190.18 33.508V44.452C189.172 45.028 187.972 45.484 186.58 45.82C185.188 46.132 183.772 46.288 182.332 46.288C180.268 46.288 178.408 45.964 176.752 45.316C175.12 44.668 173.716 43.78 172.54 42.652C171.364 41.5 170.464 40.144 169.84 38.584C169.216 37.024 168.904 35.32 168.904 33.472C168.904 31.432 169.264 29.572 169.984 27.892C170.728 26.188 171.724 24.724 172.972 23.5C174.244 22.276 175.696 21.328 177.328 20.656C178.984 19.96 180.736 19.612 182.584 19.612C183.832 19.612 185.14 19.78 186.508 20.116C187.876 20.428 189.064 20.884 190.072 21.484L188.164 24.688C187.804 24.472 187.384 24.28 186.904 24.112C186.448 23.944 185.968 23.8 185.464 23.68C184.96 23.56 184.456 23.476 183.952 23.428C183.448 23.356 182.968 23.32 182.512 23.32C181.24 23.32 180.016 23.572 178.84 24.076C177.664 24.58 176.632 25.276 175.744 26.164C174.856 27.052 174.148 28.096 173.62 29.296C173.092 30.496 172.828 31.792 172.828 33.184C172.828 34.456 173.056 35.656 173.512 36.784C173.992 37.912 174.652 38.908 175.492 39.772C176.332 40.636 177.34 41.32 178.516 41.824C179.692 42.328 180.988 42.58 182.404 42.58C182.956 42.58 183.604 42.532 184.348 42.436C185.116 42.316 185.848 42.124 186.544 41.86V36.892H181.468V33.508H190.18ZM202.198 34.516C201.526 34.516 200.878 34.612 200.254 34.804C199.63 34.972 199.066 35.236 198.562 35.596C198.082 35.956 197.698 36.412 197.41 36.964C197.122 37.492 196.978 38.104 196.978 38.8V46H193.918V30.952H196.618C196.666 31.696 196.702 32.38 196.726 33.004C196.774 33.604 196.822 34.204 196.87 34.804C197.182 34.156 197.59 33.568 198.094 33.04C198.598 32.512 199.138 32.068 199.714 31.708C200.29 31.348 200.854 31.072 201.406 30.88C201.958 30.664 202.45 30.556 202.882 30.556L202.198 34.516ZM217.56 44.236C216.84 44.884 215.964 45.4 214.932 45.784C213.9 46.168 212.844 46.36 211.764 46.36C210.66 46.36 209.616 46.156 208.632 45.748C207.672 45.316 206.832 44.752 206.112 44.056C205.392 43.336 204.816 42.496 204.384 41.536C203.976 40.576 203.772 39.556 203.772 38.476C203.772 37.396 203.976 36.376 204.384 35.416C204.816 34.456 205.392 33.616 206.112 32.896C206.832 32.176 207.66 31.612 208.596 31.204C209.556 30.772 210.576 30.556 211.656 30.556C213.36 30.556 214.836 31.072 216.084 32.104C217.356 33.112 218.268 34.444 218.82 36.1C218.076 36.364 217.224 36.688 216.264 37.072C215.304 37.456 214.308 37.864 213.276 38.296C212.244 38.704 211.212 39.112 210.18 39.52C209.148 39.928 208.188 40.3 207.3 40.636C207.708 41.452 208.296 42.112 209.064 42.616C209.856 43.096 210.732 43.336 211.692 43.336C212.34 43.336 212.988 43.216 213.636 42.976C214.308 42.736 214.848 42.412 215.256 42.004L217.56 44.236ZM214.968 35.38C214.68 34.78 214.224 34.336 213.6 34.048C212.976 33.736 212.34 33.58 211.692 33.58C210.996 33.58 210.348 33.712 209.748 33.976C209.172 34.24 208.668 34.6 208.236 35.056C207.804 35.488 207.456 35.992 207.192 36.568C206.952 37.144 206.832 37.732 206.832 38.332C206.832 38.452 206.832 38.536 206.832 38.584C206.856 38.632 206.868 38.668 206.868 38.692C207.492 38.452 208.164 38.188 208.884 37.9C209.628 37.588 210.36 37.288 211.08 37C211.8 36.688 212.496 36.4 213.168 36.136C213.84 35.848 214.44 35.596 214.968 35.38ZM234.224 44.236C233.504 44.884 232.628 45.4 231.596 45.784C230.564 46.168 229.508 46.36 228.428 46.36C227.324 46.36 226.28 46.156 225.296 45.748C224.336 45.316 223.496 44.752 222.776 44.056C222.056 43.336 221.48 42.496 221.048 41.536C220.64 40.576 220.436 39.556 220.436 38.476C220.436 37.396 220.64 36.376 221.048 35.416C221.48 34.456 222.056 33.616 222.776 32.896C223.496 32.176 224.324 31.612 225.26 31.204C226.22 30.772 227.24 30.556 228.32 30.556C230.024 30.556 231.5 31.072 232.748 32.104C234.02 33.112 234.932 34.444 235.484 36.1C234.74 36.364 233.888 36.688 232.928 37.072C231.968 37.456 230.972 37.864 229.94 38.296C228.908 38.704 227.876 39.112 226.844 39.52C225.812 39.928 224.852 40.3 223.964 40.636C224.372 41.452 224.96 42.112 225.728 42.616C226.52 43.096 227.396 43.336 228.356 43.336C229.004 43.336 229.652 43.216 230.3 42.976C230.972 42.736 231.512 42.412 231.92 42.004L234.224 44.236ZM231.632 35.38C231.344 34.78 230.888 34.336 230.264 34.048C229.64 33.736 229.004 33.58 228.356 33.58C227.66 33.58 227.012 33.712 226.412 33.976C225.836 34.24 225.332 34.6 224.9 35.056C224.468 35.488 224.12 35.992 223.856 36.568C223.616 37.144 223.496 37.732 223.496 38.332C223.496 38.452 223.496 38.536 223.496 38.584C223.52 38.632 223.532 38.668 223.532 38.692C224.156 38.452 224.828 38.188 225.548 37.9C226.292 37.588 227.024 37.288 227.744 37C228.464 36.688 229.16 36.4 229.832 36.136C230.504 35.848 231.104 35.596 231.632 35.38ZM248.224 42.292C248.56 42.7 248.872 43.096 249.16 43.48C249.472 43.84 249.784 44.224 250.096 44.632C249.424 45.16 248.668 45.58 247.828 45.892C246.988 46.204 246.076 46.36 245.092 46.36C243.988 46.36 242.944 46.156 241.96 45.748C241 45.316 240.16 44.74 239.44 44.02C238.72 43.3 238.144 42.46 237.712 41.5C237.304 40.54 237.1 39.52 237.1 38.44C237.1 37.36 237.304 36.34 237.712 35.38C238.144 34.42 238.72 33.592 239.44 32.896C240.16 32.176 241 31.612 241.96 31.204C242.944 30.772 243.988 30.556 245.092 30.556C246.1 30.556 247.024 30.712 247.864 31.024C248.728 31.336 249.508 31.756 250.204 32.284L248.224 34.624C247.816 34.288 247.348 34.036 246.82 33.868C246.292 33.676 245.716 33.58 245.092 33.58C244.372 33.58 243.712 33.712 243.112 33.976C242.512 34.216 241.984 34.552 241.528 34.984C241.096 35.416 240.76 35.932 240.52 36.532C240.28 37.108 240.16 37.744 240.16 38.44C240.16 39.136 240.28 39.784 240.52 40.384C240.76 40.96 241.096 41.476 241.528 41.932C241.984 42.364 242.512 42.712 243.112 42.976C243.712 43.216 244.372 43.336 245.092 43.336C245.716 43.336 246.292 43.252 246.82 43.084C247.348 42.892 247.816 42.628 248.224 42.292ZM265.338 44.236C264.618 44.884 263.742 45.4 262.71 45.784C261.678 46.168 260.622 46.36 259.542 46.36C258.438 46.36 257.394 46.156 256.41 45.748C255.45 45.316 254.61 44.752 253.89 44.056C253.17 43.336 252.594 42.496 252.162 41.536C251.754 40.576 251.55 39.556 251.55 38.476C251.55 37.396 251.754 36.376 252.162 35.416C252.594 34.456 253.17 33.616 253.89 32.896C254.61 32.176 255.438 31.612 256.374 31.204C257.334 30.772 258.354 30.556 259.434 30.556C261.138 30.556 262.614 31.072 263.862 32.104C265.134 33.112 266.046 34.444 266.598 36.1C265.854 36.364 265.002 36.688 264.042 37.072C263.082 37.456 262.086 37.864 261.054 38.296C260.022 38.704 258.99 39.112 257.958 39.52C256.926 39.928 255.966 40.3 255.078 40.636C255.486 41.452 256.074 42.112 256.842 42.616C257.634 43.096 258.51 43.336 259.47 43.336C260.118 43.336 260.766 43.216 261.414 42.976C262.086 42.736 262.626 42.412 263.034 42.004L265.338 44.236ZM262.746 35.38C262.458 34.78 262.002 34.336 261.378 34.048C260.754 33.736 260.118 33.58 259.47 33.58C258.774 33.58 258.126 33.712 257.526 33.976C256.95 34.24 256.446 34.6 256.014 35.056C255.582 35.488 255.234 35.992 254.97 36.568C254.73 37.144 254.61 37.732 254.61 38.332C254.61 38.452 254.61 38.536 254.61 38.584C254.634 38.632 254.646 38.668 254.646 38.692C255.27 38.452 255.942 38.188 256.662 37.9C257.406 37.588 258.138 37.288 258.858 37C259.578 36.688 260.274 36.4 260.946 36.136C261.618 35.848 262.218 35.596 262.746 35.38Z" fill="black"/>
</svg>
